# xmcd
#
# Track frame offsets:
# 150
# 15336
# 29413
# 43800
# 57243
# 74301
# 87651
# 102997
# 119259
# 136456
# 148972
#
# Disc length: 2214 seconds
#
#
# Revision: 0
# Processed by: cddbd v1.5.2PL0 Copyright (c) Steve Scherf et al.
# Submitted via: FreeRIP 2.931 
#
DISCID=a108a40b
DTITLE=The Toy Hearts - If The Blues Come Calling 
DYEAR=1900
DGENRE=Bluegrass
TTITLE0=If The Blues Come Calling
TTITLE1=Two Of A Kind
TTITLE2=Believe In Me
TTITLE3=Right Or Wrong
TTITLE4=Piccadilly Special
TTITLE5=The Ocean Wide
TTITLE6=Leave This Heart Alone
TTITLE7=City Girl
TTITLE8=On My Way Home
TTITLE9=John Henry
TTITLE10=Restless
EXTD=
EXTT0=
EXTT1=
EXTT2=
EXTT3=
EXTT4=
EXTT5=
EXTT6=
EXTT7=
EXTT8=
EXTT9=
EXTT10=
PLAYORDER=
